<?xml version="1.0" encoding="utf-8"?>
<!-- Generator: Adobe Illustrator 24.3.0, SVG Export Plug-In . SVG Version: 6.00 Build 0)  -->
<svg version="1.1" id="Layer_1" xmlns="http://www.w3.org/2000/svg" xmlns:xlink="http://www.w3.org/1999/xlink" x="0px" y="0px"
	 viewBox="0 0 78 78" style="enable-background:new 0 0 78 78;" xml:space="preserve">
<style type="text/css">
	.st0{fill:#194965;}
	.st1{font-family:'MazzardH-ExtraLight';}
	.st2{font-size:9.2397px;}
	.st3{letter-spacing:4;}
	.st4{fill:#5FA8D4;}
</style>
<g>
	<text transform="matrix(1 0 0 1 1.7758 53.3173)" class="st0 st1 st2 st3">CHECKER</text>
	<polygon class="st4" points="24.51,31.62 22.54,30.54 27.24,22.54 36.6,38.7 27.24,38.6 27.27,36.41 32.81,36.43 27.24,26.89 	"/>
	<path class="st4" d="M22.57,30.54l1.95,1.08l-1.77,3.08c0,0-1.07,1.46,0.43,1.65h4.09v2.27h-4.69c0,0-3.31-0.84-2.17-4.42
		L22.57,30.54z"/>
	<g>
		<polygon class="st4" points="63.3,31.62 61.33,30.54 66.03,22.54 75.39,38.7 66.03,38.6 66.06,36.41 71.6,36.43 66.03,26.89 		"/>
		<path class="st4" d="M61.39,30.45l1.97,1.09l-1.79,3.11c0,0-1.08,1.47,0.43,1.66h4.13v2.29h-4.74c0,0-3.34-0.85-2.19-4.46
			L61.39,30.45z"/>
	</g>
	<path class="st0" d="M9.77,23.54c0,0,7.77,0.37,7.98,7.72h-2.32c0,0,0.41-4.75-5.66-5.44V23.54z"/>
	<polygon class="st0" points="15.46,31.16 17.75,31.16 17.75,38.7 2.56,38.7 2.56,23.54 10.05,23.54 10.05,25.86 4.67,25.86 
		4.81,36.57 15.51,36.62 	"/>
	<g>
		<path class="st0" d="M48.4,23.54c0,0,7.71,0.37,7.92,7.65h-2.3c0,0,0.41-4.71-5.62-5.39V23.54z"/>
		<rect x="41.13" y="35.09" class="st0" width="2.17" height="9.96"/>
		<polygon class="st0" points="54.02,31.16 56.32,31.16 56.32,38.7 41.13,38.7 41.13,23.54 48.62,23.54 48.62,25.86 43.24,25.86 
			43.37,36.57 54.08,36.62 		"/>
	</g>
</g>
</svg>
